<svg
  xmlns="http://www.w3.org/2000/svg"
  width="28"
  height="28"
  viewBox="0 0 28 28"
  fill="none"
>
  <path
    fillRule="evenodd"
    clipRule="evenodd"
    d="M8.60782 7C8.92224 6.99968 9.20439 7.19283 9.31757 7.48588L14.1959 20.1174C14.347 20.5086 14.152 20.948 13.7605 21.0989C13.3689 21.2498 12.929 21.055 12.778 20.6639L11.1804 16.5274H6.05686L4.46965 20.6624C4.3194 21.0538 3.87992 21.2495 3.48805 21.0995C3.09619 20.9494 2.90032 20.5103 3.05058 20.1189L7.89905 7.48733C8.01162 7.19406 8.29338 7.00032 8.60782 7ZM8.61078 9.87374L10.6821 15.2369H6.55218L8.61078 9.87374ZM19.5644 10.7303C17.0708 10.7303 15.1725 12.9752 15.1725 15.8963C15.1725 18.9692 17.2227 21.0623 19.5644 21.0623C20.8144 21.0623 22.1108 20.5413 22.9922 19.5585V20.3299C22.9922 20.7072 23.2983 21.0131 23.6761 21.0131C24.0538 21.0131 24.36 20.7072 24.36 20.3299V11.5091C24.36 11.1318 24.0538 10.8259 23.6761 10.8259C23.2983 10.8259 22.9922 11.1318 22.9922 11.5091V12.273C22.1579 11.3284 20.9223 10.7303 19.5644 10.7303ZM22.9922 17.7007V13.9108C22.3988 12.8163 21.1488 12.0216 19.8499 12.0216C18.3636 12.0216 16.7316 13.4005 16.7316 15.8961C16.7316 18.2398 18.2116 19.7705 19.8499 19.7705C21.1924 19.7705 22.411 18.7589 22.9922 17.7007Z"
    fill="white"
  />
  <rect x="0.5" y="0.5" width="27" height="27" rx="4.5" stroke="white" />
</svg>
