<svg
  xmlns="http://www.w3.org/2000/svg"
  width="14"
  height="14"
  viewBox="0 0 14 14"
  fill="none"
>
  <path
    fillRule="evenodd"
    clipRule="evenodd"
    d="M13.6064 1.68975C13.7734 1.51686 13.8658 1.28531 13.8637 1.04496C13.8616 0.804615 13.7652 0.574704 13.5953 0.404747C13.4253 0.234789 13.1954 0.138384 12.955 0.136296C12.7147 0.134207 12.4831 0.226602 12.3103 0.393581L7 5.70383L1.68975 0.393581C1.51687 0.226602 1.28532 0.134207 1.04497 0.136296C0.804622 0.138384 0.57471 0.234789 0.404753 0.404747C0.234795 0.574704 0.13839 0.804615 0.136302 1.04496C0.134213 1.28531 0.226608 1.51686 0.393587 1.68975L5.70384 7L0.393587 12.3102C0.306036 12.3948 0.236202 12.496 0.18816 12.6078C0.140119 12.7196 0.114831 12.8399 0.113774 12.9616C0.112716 13.0833 0.135909 13.204 0.182 13.3167C0.228091 13.4294 0.296156 13.5317 0.382224 13.6178C0.468293 13.7038 0.57064 13.7719 0.683295 13.818C0.79595 13.8641 0.916657 13.8873 1.03837 13.8862C1.16009 13.8852 1.28037 13.8599 1.39221 13.8118C1.50404 13.7638 1.60519 13.694 1.68975 13.6064L7 8.29616L12.3103 13.6064C12.4831 13.7734 12.7147 13.8658 12.955 13.8637C13.1954 13.8616 13.4253 13.7652 13.5953 13.5952C13.7652 13.4253 13.8616 13.1954 13.8637 12.955C13.8658 12.7147 13.7734 12.4831 13.6064 12.3102L8.29617 7L13.6064 1.68975Z"
    fill="white"
  />
</svg>